<svg xmlns="http://www.w3.org/2000/svg" viewBox="0 0 149.59 109.89"><defs><style>.cls-1{fill:#fffdee;}</style></defs><g id="Camada_2" data-name="Camada 2"><g id="Camada_1-2" data-name="Camada 1"><path class="cls-1" d="M79.89,3.35a4.12,4.12,0,0,1-2.13,3.47c-1.25.76-4.8,2.1-10.7-1.64-.22-.14-.43-.26-.65-.38a1.8,1.8,0,0,1-.08.39l-8,22.61c-2.27,6.43-4.88,8-6.69,8.17h0a3.43,3.43,0,0,1-3.54-2.54c-.75-2.17-.18-5.5,2.77-8a1.67,1.67,0,0,1,2.39.1,1.74,1.74,0,0,1-.32,2.41,4.12,4.12,0,0,0-1.61,4.16c.13.37.3.5.36.5.41,0,1.91-1.15,3.49-5.63l8-22.61a1.8,1.8,0,0,1,.33-.59,14,14,0,0,0-7.77.59,6.71,6.71,0,0,0-4,3.5,2.55,2.55,0,0,0,.42,2.78,2.35,2.35,0,0,0,2.22.78c.26-.08.59-.26.79-.93a1.89,1.89,0,0,1,2.15-1.3,1.55,1.55,0,0,1,1.1,2A5.08,5.08,0,0,1,55,14.66a5.14,5.14,0,0,1-1,.18,5.52,5.52,0,0,1-4.53-1.79,5.8,5.8,0,0,1-1-6.13c.9-2.49,3.13-4.54,6.26-5.77A16.42,16.42,0,0,1,69.06,2.23c3.83,2.44,6.3,2.21,7.16,1.7.17-.1.26-.21.26-.26A1.92,1.92,0,0,1,78.19,1.8,1.53,1.53,0,0,1,79.89,3.35Z"/><path class="cls-1" d="M73.86,24.44c-3.09,7.1-5.6,9.1-7.37,9.27a2.56,2.56,0,0,1-1-.11c-2-.63-2.43-3.42-1.07-7.27l3.43-9.74A1.87,1.87,0,0,1,70,15.36a1.56,1.56,0,0,1,1,2.09L67.61,27.2A9.11,9.11,0,0,0,67,29.75c.73-.77,2-2.54,3.72-6.43A1.84,1.84,0,0,1,73,22.26,1.58,1.58,0,0,1,73.86,24.44ZM70.08,10.57a1.86,1.86,0,0,1,1.66-1.81,1.48,1.48,0,0,1,1.66,1.5,1.85,1.85,0,0,1-1.66,1.81A1.48,1.48,0,0,1,70.08,10.57Z"/><path class="cls-1" d="M97.61,22.3c-2.87,5.89-5.69,9.14-8.09,9.36a2.6,2.6,0,0,1-1.07-.11c-.69-.22-2.83-1.34-1.27-6.34.39-1.22.79-2.42,1.15-3.47a34,34,0,0,0,1.44-4.87c-3.43.86-6.66,8.91-7.75,11.61-.79,2-1.27,3.17-2.78,3a1.52,1.52,0,0,1-1.12-.75A1.67,1.67,0,0,1,78,29.3l1.79-4.93c1.66-4.55,2-6.35,1.93-7.06-3.22.89-8.06,9.13-10.58,15A1.87,1.87,0,0,1,69,33.35a1.57,1.57,0,0,1-1-2.08l5.35-15.2a1.87,1.87,0,0,1,2.18-1.22,1.56,1.56,0,0,1,1,2.09l-.13.38c1.79-1.92,3.73-3.31,5.68-3.49a2.58,2.58,0,0,1,2.41,1,3,3,0,0,1,.56,1.42A8.33,8.33,0,0,1,90,13.4h0a2.71,2.71,0,0,1,2.59.95c1.2,1.59.3,4.23-1.07,8.23-.37,1.08-.76,2.2-1.13,3.38A7.94,7.94,0,0,0,90,27.89c.87-.73,2.5-2.66,4.54-6.86a1.85,1.85,0,0,1,2.3-1A1.6,1.6,0,0,1,97.61,22.3Z"/><path class="cls-1" d="M111,21.17c-4,7-8.28,9.67-11.47,10a5.59,5.59,0,0,1-2.57-.32c-3.1-1.2-4.2-5.07-2.68-9.4,1.64-4.65,4.71-8,8.22-8.88,1.89-.49,3.61-.15,4.51.88,1.64,1.88,1.06,4.84-1.53,7.72-1.93,2.15-5.61,4.8-7.83,3.28a1.45,1.45,0,0,1-.55-.68c-.32,1.91.16,3.42,1.34,3.87,2,.78,5.87-1.38,9.65-7.94a1.81,1.81,0,0,1,2.35-.78A1.62,1.62,0,0,1,111,21.17Zm-13.28.48a1.72,1.72,0,0,1,1.86-.22h0c.88-.08,3.48-1.92,4.58-4,.41-.77.47-1.32.2-1.64a1.73,1.73,0,0,0-.73,0,4.28,4.28,0,0,0-1,.26C101.61,16.36,99.29,17.63,97.7,21.65Z"/><path class="cls-1" d="M118.81,22.73a5.88,5.88,0,0,0-.5,3.05c.76-.15,3.41-2,5.89-7.39a1.91,1.91,0,0,1,2.21-1.12,1.57,1.57,0,0,1,.9,2.22c-2.56,5.66-6.18,9.43-9.09,9.7a3.19,3.19,0,0,1-1.31-.13c-.8-.26-3.29-1.56-1.3-7.2l3.77-10.67-.74.07a1.52,1.52,0,0,1-1.71-1.54,1.92,1.92,0,0,1,1.71-1.87l2-.18,1.4-4a1.87,1.87,0,0,1,2.19-1.22,1.57,1.57,0,0,1,1,2.1l-1,2.74.61,0a1.53,1.53,0,0,1,1.71,1.54,1.91,1.91,0,0,1-1.71,1.86l-1.86.18Z"/><path class="cls-1" d="M143.56,18.12a7.08,7.08,0,0,1-6.78,4.51c-1.81,3.19-4.34,5.09-7.24,5.36a5.56,5.56,0,0,1-5.19-1.88c-.82-1.1-1.55-3.12-.35-6.54a3.84,3.84,0,0,1,.55-1,1.85,1.85,0,0,1,.09-.8c1.22-3.45,4.9-8.79,9.58-8.43a4.81,4.81,0,0,1,3.87,2.19c1.12,1.77,1.21,4.52.24,7.54a3.61,3.61,0,0,0,2.17-2.14,1.83,1.83,0,0,1,2.28-1A1.57,1.57,0,0,1,143.56,18.12Zm-10.37,4.05c-1-.23-1.88-.51-2.67-.76a15.53,15.53,0,0,0-3.37-.8c-.49,1.48-.49,2.64,0,3.29a2.67,2.67,0,0,0,2.4.68A5.2,5.2,0,0,0,133.19,22.17Zm2-8.64a1.78,1.78,0,0,0-1.51-.8c-2-.15-4.05,2.24-5.22,4.54a22.48,22.48,0,0,1,3.36.86c1.16.36,2.17.65,3.06.84.1-.25.18-.49.24-.69C135.73,16.29,135.76,14.47,135.16,13.53Z"/><path class="cls-1" d="M91.24,83c-2.09,2.92-6.1,3.33-9.62,3.13l-1.53,4.34c.92,5.45,1.33,12.11.86,15.14-.19,1.28-.63,3.07-2.15,3.8a4.75,4.75,0,0,1-1.66.48,3.54,3.54,0,0,1-2.76-.87c-2.28-2-2.27-6.72,0-13.27l1.89-5.37a18.91,18.91,0,0,0-1.37-5A1.89,1.89,0,0,1,74.43,83c.71-1.5,2-1.31,3.91-1l.88.13,3.47-9.85c1.46-4.14,3.94-5.24,5.78-4.89a3.66,3.66,0,0,1,2.67,4.54A2.05,2.05,0,0,1,89,73.52a1.67,1.67,0,0,1-1.44-2.06.53.53,0,0,0-.05-.43,4.24,4.24,0,0,0-1.29,2.15L82.93,82.4c2.24.06,4.5-.2,5.36-1.4a1.92,1.92,0,0,1,2.6-.59A1.8,1.8,0,0,1,91.24,83ZM77.32,98.46c-1.52,5.11-.8,7.24-.35,7.65a.22.22,0,0,0,.16.06C77.59,105,77.59,101.89,77.32,98.46Z"/><path class="cls-1" d="M110.12,81A7.7,7.7,0,0,1,102.73,86c-2,3.47-4.72,5.54-7.88,5.84-2.48.23-4.49-.5-5.65-2.05-.89-1.2-1.69-3.4-.38-7.12a4.08,4.08,0,0,1,.6-1.11,2,2,0,0,1,.1-.87c1.32-3.76,5.33-9.57,10.43-9.18a5.22,5.22,0,0,1,4.21,2.38c1.22,1.93,1.32,4.93.26,8.22a4,4,0,0,0,2.36-2.33,2,2,0,0,1,2.48-1.09A1.73,1.73,0,0,1,110.12,81ZM98.83,85.45c-1.06-.25-2-.55-2.92-.82a15.76,15.76,0,0,0-3.66-.87c-.54,1.6-.54,2.86,0,3.57a2.89,2.89,0,0,0,2.61.75A5.74,5.74,0,0,0,98.83,85.45Zm2.14-9.4a1.94,1.94,0,0,0-1.64-.88c-2.15-.16-4.42,2.44-5.69,5a23.25,23.25,0,0,1,3.66.94c1.26.39,2.36.7,3.33.9.11-.27.19-.52.26-.74C101.59,79.05,101.63,77.07,101,76.05Z"/><path class="cls-1" d="M128.08,79.38a7.71,7.71,0,0,1-7.39,4.9c-2,3.47-4.72,5.54-7.88,5.84-2.48.23-4.49-.5-5.65-2.05-.89-1.2-1.69-3.4-.38-7.12a4.08,4.08,0,0,1,.6-1.11,1.89,1.89,0,0,1,.1-.87c1.32-3.76,5.33-9.57,10.43-9.18a5.22,5.22,0,0,1,4.21,2.38c1.22,1.93,1.32,4.93.26,8.22a4,4,0,0,0,2.36-2.33A2,2,0,0,1,127.23,77,1.74,1.74,0,0,1,128.08,79.38Zm-11.29,4.41c-1.06-.26-2.05-.56-2.92-.83a15.71,15.71,0,0,0-3.67-.87c-.53,1.6-.53,2.86,0,3.57a2.89,2.89,0,0,0,2.61.75A5.74,5.74,0,0,0,116.79,83.79Zm2.14-9.41a1.94,1.94,0,0,0-1.64-.88c-2.15-.16-4.42,2.44-5.69,5a23.25,23.25,0,0,1,3.66.94c1.26.39,2.36.7,3.33.9.11-.27.19-.52.26-.74C119.55,77.38,119.59,75.4,118.93,74.38Z"/><path class="cls-1" d="M135.69,91a1.93,1.93,0,0,1-.63-.06,1.7,1.7,0,0,1-1.12-2.26l.35-1c-3.29,1.4-6.42,1.18-8.37-.58-1.23-1.11-3-3.8-1.22-9.34,2.89-8.9,7.72-9.35,9.54-9.52a5.27,5.27,0,0,1,5,1.93,5.6,5.6,0,0,1,.68,1.17L146,54a2.14,2.14,0,0,1,2-1.47,1.7,1.7,0,0,1,1.48,2.33l-8.34,24.1a13.76,13.76,0,0,0,2.14-2.67,2,2,0,0,1,2.54-.91,1.76,1.76,0,0,1,.68,2.47A23.25,23.25,0,0,1,139,85.2l-1.52,4.4v0A2.12,2.12,0,0,1,135.69,91ZM134.24,72c-1.39.13-4,.37-6,6.67-.85,2.61-.73,4.66.32,5.61s2.7.86,4.67,0h0a5.42,5.42,0,0,0,3.1-3.82c1.1-5.29.39-7.18-.09-7.81C136,72.23,135.5,71.84,134.24,72Z"/><path class="cls-1" d="M46.36,11.54c.5,14.21-20,56.79-31.42,60.92a11.1,11.1,0,0,1-2.8.66,6.89,6.89,0,0,1-5.69-1.9c-5.06-5-2.74-18.55.79-28.58l1.37-3.88c1.66-4.7,3.19-9,4.1-12-3.14,2.87-7.24,7.91-7.12,13a3.12,3.12,0,0,1-2.72,3.11A2.49,2.49,0,0,1,0,40.4c-.16-6.5,4.08-12.24,6.62-15.08,2-2.27,6.22-6.19,9-6.45a3.11,3.11,0,0,1,2.86,1.2c1.7,2.27.37,6.05-4.61,20.12L12.5,44.06c-4.07,11.55-4.18,20.76-1.93,23,.26.26.89.88,2.92.14,8.08-2.93,27.72-42.48,27.28-54.95a3.15,3.15,0,0,1,2.7-3.14A2.49,2.49,0,0,1,46.36,11.54Z"/><path class="cls-1" d="M63,54.1C56.34,65.58,49.38,70,44.14,70.45a9.18,9.18,0,0,1-4.21-.53c-5.09-2-6.9-8.31-4.4-15.42C38.22,46.87,43.26,41.43,49,39.93c3.09-.8,5.92-.25,7.39,1.43,2.7,3.1,1.74,8-2.51,12.68-3.16,3.52-9.2,7.86-12.85,5.37a2.32,2.32,0,0,1-.89-1.1c-.54,3.13.26,5.6,2.19,6.35,3.28,1.27,9.63-2.27,15.84-13A3,3,0,0,1,62,50.34,2.65,2.65,0,0,1,63,54.1Zm-21.79.79a2.87,2.87,0,0,1,3-.37h0c1.45-.13,5.71-3.14,7.52-6.56.66-1.26.77-2.16.32-2.68a2.87,2.87,0,0,0-1.19-.09,6.68,6.68,0,0,0-1.72.43C47.58,46.22,43.78,48.3,41.17,54.89Z"/><path class="cls-1" d="M83.86,46.8C85.27,51.33,75.92,73,65.62,84c-4.1,4.35-7.51,6.63-10.35,6.89a5.54,5.54,0,0,1-1.78-.11,4.8,4.8,0,0,1-3.6-4.15,10.27,10.27,0,0,1,3.33-9,2.74,2.74,0,0,1,3.92.17,2.88,2.88,0,0,1-.53,4,4.33,4.33,0,0,0-1.21,3.48c.58-.14,2.51-.88,6.32-4.92,5.68-6,10.43-14.77,13.4-21.58C66.29,69.25,61,68.29,58.94,67.17c-3.91-2.1-4-8.22-.29-15.23,5.22-9.82,14.83-17.09,20.14-15.27,1.06.36,4.33,2,2.5,8h.07A2.84,2.84,0,0,1,83.86,46.8Zm-6.53.05a2.57,2.57,0,0,1-1.4-3.22A5.7,5.7,0,0,0,76.25,42c-2,.21-8.46,4.21-12.73,12.22-2.52,4.74-2.16,7.65-1.6,8s5.49-.71,14-13.57l.07-.11C76.44,47.94,76.87,47.37,77.33,46.85Z"/><path class="cls-1" d="M119,48.48c-4.16,10.75-7.5,14.91-12.3,15.36a4,4,0,0,1-3.73-1.62,6.69,6.69,0,0,1-1.12-3c-.17.22-.34.44-.51.64-3.61,4.47-6.82,5.83-9.18,6a6.75,6.75,0,0,1-3.68-.63c-4.26-2.15-5.44-8.59-2.88-15.66,2.48-6.87,9.09-14.35,15.85-15a8,8,0,0,1,6.33,1.87l.31-.76a3,3,0,0,1,3.59-1.87,2.57,2.57,0,0,1,1.62,3.41l-4.9,13.92a15.61,15.61,0,0,0-1,6.91c1.06-.52,3.08-2.57,6.42-11.19A3,3,0,0,1,117.39,45,2.58,2.58,0,0,1,119,48.48ZM104,41a2.65,2.65,0,0,0-2.58-.86c-3.62.34-8.68,5.51-10.62,10.86-1.85,5.11-.79,8.47.52,9.12,1,.51,3.18-.42,5.79-3.64a58,58,0,0,0,5.84-9.6l.09-.17C104.31,44.28,104.67,42.15,104,41Z"/><path class="cls-1" d="M146.61,46.16C141,57.59,136.2,62.53,132.08,61.24c-3.08-1-4-5.08-2.32-10.75.71-2.42,1.57-4.8,2.32-6.9a49.09,49.09,0,0,0,2-6.4c-3.93,1-14.15,8.74-19.63,24.31a3.15,3.15,0,0,1-2.63,2.08,2.61,2.61,0,0,1-1-.08,2.57,2.57,0,0,1-1.67-3.43h0l8.86-25.18a3.09,3.09,0,0,1,3.59-2,2.57,2.57,0,0,1,1.67,3.43l-.83,2.34c4.51-4.39,9-6.85,12.14-7.14a4.38,4.38,0,0,1,4.22,1.58c1.86,2.51.43,6.48-1.55,12-.76,2.11-1.55,4.29-2.2,6.53a12.47,12.47,0,0,0-.58,3.56c1.21-1.12,3.59-4,7.11-11.11a3,3,0,0,1,3.76-1.54A2.62,2.62,0,0,1,146.61,46.16Z"/></g></g></svg>