<svg xmlns="http://www.w3.org/2000/svg" viewBox="0 0 1090.3 800.95"><defs><style>.cls-1{fill:#e8423b;}</style></defs><g id="Camada_2" data-name="Camada 2"><g id="Arte"><path class="cls-1" d="M582.29,24.4c0,10-5.8,19.47-15.5,25.32-9.12,5.5-35,15.33-78-12q-2.3-1.44-4.68-2.71a13.13,13.13,0,0,1-.63,2.82l-58,164.75c-16.53,46.93-35.54,58.36-48.72,59.58l-.39,0c-11.69.93-21.59-6.17-25.82-18.53-5.42-15.84-1.29-40.1,20.17-58.58,5.44-4.68,13.24-4.39,17.42.67s3.16,12.94-2.28,17.63c-11.72,10.08-14.3,22.76-11.73,30.27.93,2.71,2.15,3.68,2.63,3.67,3-.27,13.87-8.36,25.38-41.06l58-164.76a14,14,0,0,1,2.47-4.3,102,102,0,0,0-56.7,4.3c-15,5.89-25.75,15.19-29.5,25.49-3.65,10-.32,16.56,3.11,20.28,4.95,5.36,11.86,6.88,16.13,5.64,1.91-.56,4.29-1.83,5.81-6.72,2.09-6.73,9.08-11,15.61-9.52s10.14,8.13,8.06,14.86c-3.92,12.63-12.88,21.84-24.6,25.28a37,37,0,0,1-6.88,1.31,40.34,40.34,0,0,1-33.06-13c-10.79-11.7-13.5-28-7.42-44.71,6.59-18.14,22.79-33.07,45.62-42,34.57-13.57,75.63-10.47,104.62,7.91C531.3,34,549.3,32.38,555.52,28.64c1.27-.76,2-1.56,2-1.93a13.92,13.92,0,0,1,12.41-13.58A11.12,11.12,0,0,1,582.29,24.4Z"/><path class="cls-1" d="M538.35,178.1c-22.56,51.79-40.83,66.39-53.73,67.59a18.56,18.56,0,0,1-7.33-.77c-14.71-4.64-17.72-24.95-7.85-53l25-71c2.35-6.66,9.49-10.63,15.92-8.89s9.77,8.56,7.42,15.22l-25,71c-2.95,8.4-4,14.54-4.16,18.6,5.3-5.63,14.74-18.49,27.1-46.89,2.84-6.51,10.2-10,16.45-7.71S541.18,171.6,538.35,178.1ZM510.81,77a13.54,13.54,0,0,1,12.08-13.2A10.83,10.83,0,0,1,535,74.8,13.53,13.53,0,0,1,522.89,88,10.82,10.82,0,0,1,510.81,77Z"/><path class="cls-1" d="M711.45,162.53c-20.91,42.92-41.51,66.62-58.93,68.24a19.21,19.21,0,0,1-7.81-.83c-5.06-1.62-20.68-9.74-9.27-46.17,2.8-8.94,5.77-17.63,8.39-25.29,4.16-12.12,9.61-28.07,10.44-35.56-25,6.34-48.54,65-56.44,84.63C592,222,588.52,230.7,577.56,229.22a11,11,0,0,1-8.17-5.48,12.15,12.15,0,0,1-.68-10.2l13.11-35.91c12.09-33.15,14.16-46.27,14-51.45-23.43,6.51-58.72,66.53-77.11,109-2.75,6.34-9.82,9.81-16,7.88s-9.27-8.61-7-15.1l39-110.81c2.35-6.66,9.49-10.65,15.92-8.9s9.77,8.56,7.43,15.23l-1,2.77c13-14,27.19-24.1,41.43-25.42,7.41-.69,13.66,1.86,17.59,7.18a22.74,22.74,0,0,1,4.09,10.4c10.4-11.1,22.37-19.06,36-20.72h0c10.56-1,16,3.23,18.83,6.92,8.76,11.57,2.17,30.83-7.81,60-2.7,7.88-5.48,16-8.18,24.62a58.31,58.31,0,0,0-2.86,14.07c6.32-5.33,18.21-19.4,33.11-50,3.12-6.4,10.61-9.52,16.71-7S714.57,156.12,711.45,162.53Z"/><path class="cls-1" d="M808.92,154.29c-29.43,51-60.34,70.47-83.64,72.63a41.13,41.13,0,0,1-18.7-2.34C684,215.8,675.93,187.64,687,156.07,699,122.18,721.38,98,747,91.36c13.73-3.58,26.32-1.14,32.86,6.35,12,13.74,7.7,35.31-11.15,56.31C754.62,169.68,727.8,189,711.56,177.9a10.81,10.81,0,0,1-4-4.92c-2.38,13.9,1.16,24.88,9.75,28.21,14.55,5.66,42.77-10.05,70.37-57.87,3.57-6.19,11.21-8.76,17.07-5.72S812.5,148.09,808.92,154.29Zm-96.82,3.52a12.65,12.65,0,0,1,13.56-1.63h0c6.44-.6,25.36-14,33.38-29.17,3-5.61,3.45-9.61,1.45-11.9a12,12,0,0,0-5.29-.39,29,29,0,0,0-7.64,1.88C740.6,119.26,723.71,128.51,712.1,157.81Z"/><path class="cls-1" d="M866,165.64c-4.61,13.09-4.35,19.92-3.68,22.23,5.56-1.08,24.86-14.17,42.92-53.8,2.86-6.27,10-10.14,16.12-8.22,6.68,2.08,9.62,9.51,6.58,16.21-18.66,41.23-45,68.75-66.28,70.73a23.4,23.4,0,0,1-9.5-1c-5.88-1.9-24-11.33-9.5-52.48l27.5-77.73-5.45.5a11.13,11.13,0,0,1-12.42-11.26A13.93,13.93,0,0,1,864.7,57.25l14.54-1.35,10.21-28.84c2.36-6.66,9.47-10.63,15.91-8.89s9.78,8.58,7.41,15.25l-7.08,20,4.46-.41a11.12,11.12,0,0,1,12.42,11.26,13.93,13.93,0,0,1-12.42,13.58L896.6,79.13Z"/><path class="cls-1" d="M1046.38,132.09c-11.72,25.11-30.39,32.63-49.45,32.85C983.76,188.16,965.31,202,944.15,204c-16.59,1.54-30-3.32-37.78-13.7-6-8-11.31-22.78-2.54-47.68a26.88,26.88,0,0,1,4-7.45,12.83,12.83,0,0,1,.66-5.78c8.87-25.16,35.67-64.11,69.83-61.48,12.4,1,22.13,6.47,28.16,16,8.22,12.93,8.85,33,1.74,55,6.88-2.18,11.9-7.12,15.85-15.59,3-6.44,10.44-9.7,16.62-7.26S1049.4,125.65,1046.38,132.09Zm-75.57,29.52c-7.07-1.67-13.7-3.73-19.52-5.54-7.94-2.45-19.57-6-24.55-5.82-3.56,10.76-3.56,19.19,0,23.92,3.84,5.12,11.6,5.55,17.44,5C955.52,178.12,964.29,170.61,970.81,161.61Zm14.36-63c-2.27-3.59-5.77-5.45-11-5.85-14.39-1.1-29.57,16.34-38.08,33.09,7.52,1,15.7,3.58,24.49,6.31,8.44,2.61,15.82,4.68,22.33,6.07.68-1.84,1.26-3.53,1.74-5C989.33,118.75,989.53,105.48,985.17,98.63Z"/><path class="cls-1" d="M665,604.82c-15.23,21.28-44.46,24.26-70.07,22.78l-11.15,31.68c6.63,39.7,9.68,88.28,6.26,110.35-1.45,9.32-4.64,22.33-15.71,27.7a34.83,34.83,0,0,1-12.07,3.49,26.08,26.08,0,0,1-20.11-6.33c-16.64-14.67-16.56-49,.25-96.76l13.78-39.15c-3.11-17.51-6.66-31.47-10-36.78-8-6.65-4.53-15.12-3.73-16.81,5.18-11,15-9.59,28.49-7.65,1.83.27,4,.58,6.43.9l25.26-71.75c10.64-30.23,28.75-38.24,42.15-35.69,14.16,2.71,22.72,17.25,19.48,33.11-1.52,7.45-8.68,12.82-16,12s-12-7.56-10.48-15a4.25,4.25,0,0,0-.38-3.15c-1.54.93-5.58,4.89-9.37,15.66L604.44,600.6c16.32.43,32.84-1.49,39.11-10.24,4.54-6.36,13-8.26,19-4.27S669.56,598.46,665,604.82ZM563.58,717.62c-11.08,37.3-5.88,52.81-2.54,55.75a1.42,1.42,0,0,0,1.15.44C565.54,765,565.51,742.63,563.58,717.62Z"/><path class="cls-1" d="M802.61,590.71c-12.76,27.33-33.09,35.52-53.84,35.77-14.35,25.27-34.43,40.39-57.47,42.53-18.06,1.68-32.67-3.61-41.13-14.92-6.54-8.71-12.31-24.79-2.77-51.92a29.29,29.29,0,0,1,4.35-8.1,13.81,13.81,0,0,1,.72-6.29c9.65-27.41,38.84-69.8,76-66.95,13.49,1,24.1,7,30.66,17.37,9,14.09,9.63,35.91,1.9,59.87,7.48-2.36,13-7.74,17.25-17,3.27-7,11.37-10.57,18.08-7.91S805.9,583.69,802.61,590.71Zm-82.28,32.14c-7.7-1.83-14.92-4.08-21.25-6-8.65-2.67-21.31-6.6-26.74-6.34-3.87,11.72-3.87,20.9,0,26,4.17,5.58,12.63,6,19,5.44C703.68,640.82,713.23,632.64,720.33,622.85ZM736,554.27c-2.48-3.9-6.29-5.93-12-6.37-15.67-1.19-32.2,17.79-41.46,36,8.18,1.13,17.09,3.89,26.66,6.86,9.19,2.85,17.23,5.1,24.31,6.61.74-2,1.38-3.85,1.9-5.45C740.49,576.18,740.71,561.74,736,554.27Z"/><path class="cls-1" d="M933.52,578.54c-12.76,27.34-33.09,35.52-53.84,35.77-14.35,25.27-34.43,40.39-57.48,42.53-18.05,1.68-32.67-3.61-41.13-14.92-6.53-8.72-12.31-24.79-2.76-51.91a29.59,29.59,0,0,1,4.34-8.11,13.83,13.83,0,0,1,.73-6.29c9.65-27.41,38.83-69.81,76-66.95,13.49,1,24.09,7.05,30.65,17.38,9,14.08,9.63,35.9,1.9,59.87,7.49-2.38,12.95-7.75,17.26-17,3.27-7,11.36-10.56,18.08-7.9S936.8,571.52,933.52,578.54Zm-82.29,32.14c-7.69-1.83-14.92-4.07-21.24-6-8.66-2.67-21.31-6.59-26.74-6.34-3.87,11.72-3.87,20.89,0,26.05,4.17,5.57,12.62,6,19,5.44C834.59,628.65,844.14,620.47,851.23,610.68Zm15.64-68.57c-2.48-3.91-6.28-5.94-12-6.37-15.66-1.21-32.19,17.78-41.46,36,8.18,1.13,17.1,3.89,26.67,6.86,9.18,2.84,17.22,5.11,24.3,6.61.75-2,1.38-3.85,1.9-5.45C871.39,564,871.62,549.57,866.87,542.11Z"/><path class="cls-1" d="M989,663.38a13.06,13.06,0,0,1-4.56-.37c-7-1.87-10.7-9.26-8.17-16.53q1.31-3.78,2.52-7.4c-24,10.18-46.79,8.62-61-4.23-9-8.08-22-27.67-8.89-68.05,21.12-64.9,56.32-68.17,69.57-69.4,20.16-1.88,31.07,6.59,36.68,14A41.47,41.47,0,0,1,1020,520l43.83-126.61c2.21-6.36,8.38-11.1,14.85-10.69,8.69.53,13.6,8.82,10.79,16.94L1028.7,575.3c10.93-11.09,15.53-19.3,15.63-19.46,3.73-6.82,12-9.81,18.47-6.67s8.69,11.19,5,18c-.79,1.42-16.13,28.78-54.87,53.8l-11.1,32.08-.06.17A15.28,15.28,0,0,1,989,663.38ZM978.44,524.44c-10.13.94-29,2.7-43.94,48.58-6.2,19.07-5.35,34,2.33,40.89,6.95,6.26,19.66,6.29,34,0l.2-.08A39.5,39.5,0,0,0,993.63,586c8-38.57,2.88-52.3-.62-56.94C991.06,526.47,987.63,523.58,978.44,524.44Z"/><path class="cls-1" d="M337.9,84.09c3.63,103.59-146,414-229,444.08A82.12,82.12,0,0,1,88.46,533c-21.41,2-34.72-7.14-41.44-13.86-36.92-36.78-20-135.19,5.77-208.31l10-28.26c12.12-34.29,23.22-65.7,29.86-87.35-22.86,20.93-52.79,57.71-51.86,94.46.28,11.23-8.62,21.39-19.86,22.72C9.51,313.61.31,305.66,0,294.43c-1.18-47.36,29.7-89.15,48.21-109.85,14.84-16.6,45.34-45.18,65.54-47.06,8.5-.79,16.08,2.39,20.82,8.73C147,162.86,137.29,190.41,101,293l-10,28.2C61.47,405.31,60.68,472.46,77,488.75c1.93,1.93,6.46,6.44,21.27,1.07,58.94-21.39,202.06-309.61,198.88-400.51-.39-11.21,8.41-21.47,19.65-22.91S337.51,72.89,337.9,84.09Z"/><path class="cls-1" d="M458.92,394.32c-48.3,83.68-99,115.62-137.23,119.17A67.14,67.14,0,0,1,291,509.63c-37.1-14.39-50.28-60.61-32-112.4,19.57-55.58,56.32-95.27,98.31-106.16,22.53-5.87,43.18-1.85,53.9,10.42,19.66,22.54,12.65,57.94-18.29,92.39-23.06,25.69-67.05,57.32-93.7,39.18a17.75,17.75,0,0,1-6.51-8.08c-3.9,22.81,1.91,40.81,16,46.29,23.87,9.27,70.17-16.5,115.43-94.94,5.86-10.17,18.4-14.38,28-9.4S464.78,384.15,458.92,394.32Zm-158.85,5.77c6.53-5.12,15.28-6.31,22.24-2.68h0c10.57-1,41.6-22.89,54.76-47.86,4.86-9.19,5.66-15.76,2.39-19.51-.46-.24-3.46-1.12-8.7-.64a47.51,47.51,0,0,0-12.52,3.09C346.82,336.85,319.12,352,300.07,400.09Z"/><path class="cls-1" d="M611.26,341.08c10.23,33-57.92,191-133,270.8-29.88,31.73-54.71,48.31-75.39,50.23a40.13,40.13,0,0,1-13-.83c-14-3.3-23.57-14.32-26.29-30.23-3.86-22.56,6.37-50.07,24.3-65.38,9-7.64,21.74-7.1,28.56,1.22s5.08,21.27-3.87,28.9c-7.24,6.18-10.17,19.94-8.78,25.33,4.24-1,18.3-6.36,46.08-35.87,41.33-43.9,76-107.6,97.67-157.29-64.36,76.81-102.93,69.76-118,61.64-28.46-15.33-29.31-60-2.13-111C465.53,307,535.54,254,574.29,267.26c7.69,2.64,31.55,14.62,18.24,58.58.15,0,.31,0,.46,0C601.73,326.69,608.56,332.38,611.26,341.08Zm-47.66.41c-8.79-3.62-13.3-13.51-10.19-23.47,1.88-6,2.34-9.77,2.38-11.88-14.28,1.54-61.69,30.63-92.8,89.05-18.4,34.55-15.76,55.73-11.65,57.94,4.43,2.42,40-5.19,102.34-98.9l.54-.78C557.17,349.39,560.28,345.28,563.6,341.49Z"/><path class="cls-1" d="M867,353.36c-30.33,78.36-54.64,108.7-89.65,112-11,1-20.69-3.18-27.18-11.85-4.33-5.78-6.93-13.43-8.18-22.17-1.22,1.6-2.44,3.16-3.67,4.66-26.37,32.53-49.76,42.5-66.93,44.1a49.71,49.71,0,0,1-26.85-4.62c-31-15.66-39.64-62.61-21-114.18,18.1-50.06,66.26-104.57,115.52-109.15,18.77-1.74,35,3.14,46.15,13.61,1.42-3.42,2.21-5.39,2.26-5.54,4.23-10.62,15.85-16.69,26.21-13.62s15.55,14.1,11.75,24.86L789.69,372.91c-7.85,22.29-8.87,41.71-7.35,50.32,7.76-3.77,22.5-18.73,46.8-81.54,4.19-10.83,16.08-17,26.5-13.77S871.15,342.53,867,353.36ZM757.85,299.12c-3.91-6.25-12.39-6.86-18.81-6.26C712.65,295.31,675.78,333,661.68,372c-13.47,37.29-5.74,61.75,3.74,66.53,7.33,3.7,23.21-3.1,42.22-26.56,14.43-17.8,29.49-44.17,42.59-70,.2-.43.4-.86.62-1.28C760.28,322.75,762.9,307.19,757.85,299.12Z"/><path class="cls-1" d="M1068.58,336.41c-41.2,83.36-75.84,119.33-105.88,110-22.47-7-28.94-37-16.89-78.4,5.14-17.65,11.38-35,16.88-50.24,5.63-15.61,12.94-35.93,14.7-46.67-28.59,7.25-103.14,63.73-143.07,177.15a23,23,0,0,1-19.15,15.2,19.62,19.62,0,0,1-7-.59c-10.57-2.87-16-14.05-12.17-25a.49.49,0,0,1,0-.11l64.61-183.51c3.86-10.94,15.55-17.45,26.11-14.61s16,14,12.18,25l-6,17.06c32.81-32,65.46-49.94,88.49-52.08,17.12-1.59,26.15,5.4,30.7,11.54,13.58,18.3,3.16,47.24-11.26,87.3-5.55,15.37-11.28,31.3-16,47.62-3.43,11.8-4.3,20.34-4.23,25.91,8.79-8.17,26.13-29,51.79-80.92,5.17-10.49,17.47-15.52,27.45-11.28S1073.76,325.93,1068.58,336.41Z"/></g></g></svg>